<svg id="SvgjsSvg1031" width="288" height="288" xmlns="http://www.w3.org/2000/svg" version="1.1" xmlns:xlink="http://www.w3.org/1999/xlink" xmlns:svgjs="http://svgjs.com/svgjs"><defs id="SvgjsDefs1032"></defs><g id="SvgjsG1033"><svg xmlns="http://www.w3.org/2000/svg" viewBox="0 0 512 512" width="288" height="288"><path d="M472.254,104.06H39.746C17.829,104.06,0,121.891,0,143.806v224.387c0,21.917,17.829,39.746,39.746,39.746h432.508
			c21.917,0,39.746-17.829,39.746-39.746V143.806C512,121.891,494.171,104.06,472.254,104.06z M472.253,119.773
			c13.252,0,24.034,10.781,24.034,24.034v24.222h0.001l-32.316,0.055v-41.148c0-2.502-0.41-4.908-1.155-7.163H472.253z
			 M383.926,175.347h23.952v16.759h15.711v-16.759h16.759v-15.712h-16.759v-15.711h-15.711v15.711h-23.952v-32.701
			c0-3.948,3.214-7.162,7.163-7.162h50.008c3.951,0,7.164,3.214,7.164,7.163v66.017c0,3.95-3.214,7.163-7.164,7.163H391.09
			c-3.949,0-7.163-3.214-7.163-7.163V175.347z M263.857,175.348h24.614v16.759h15.711v-16.759h24.091v16.759h15.711v-16.759h24.23
			v17.605v26.651c0,2.496-2.031,4.527-4.527,4.527h-95.304c-2.496,0-4.527-2.031-4.527-4.527V175.348z M263.855,124.299
			c0.001-2.496,2.033-4.527,4.528-4.527h95.304c2.496,0,4.527,2.031,4.527,4.527v2.637v32.701h-24.23v-15.711h-15.711v15.711
			h-24.091v-15.711h-15.711v15.711h-24.615V124.299z M148.313,119.772h95.305c2.496,0,4.527,2.031,4.527,4.527v35.337h-24.615
			v-15.711h-15.711v15.711h-24.091v-15.711h-15.711v15.711h-24.229v-34.849v-0.488h-0.001
			C143.786,121.803,145.817,119.772,148.313,119.772z M143.785,195.101h0.001v-19.754h24.229v16.759h15.711v-16.759h24.091v16.759
			h15.712v-16.759h24.615v44.256c0,2.496-2.031,4.527-4.527,4.527h-95.305c-2.496,0-4.527-2.031-4.527-4.527V195.101z
			 M63.739,124.787c0-2.765,2.25-5.015,5.015-5.015h54.304c2.766,0,5.016,2.25,5.016,5.015v34.849h-23.953v-15.711H88.411v15.711
			H71.652v15.711h16.759v16.759h15.711v-16.759h23.953v19.754c0,2.765-2.25,5.015-5.016,5.015H68.755
			c-2.765,0-5.015-2.25-5.015-5.015V124.787z M15.711,143.806c0-13.253,10.781-24.034,24.034-24.034h8.921
			c-0.402,1.609-0.639,3.283-0.639,5.015v43.297l-32.316-0.055V143.806z M39.746,392.228c-13.253,0-24.034-10.781-24.034-24.034
			v-24.223l32.316-0.056v41.416c0,2.406,0.385,4.721,1.084,6.897H39.746z M128.075,336.652h-23.953v-16.759H88.411v16.759H71.652
			v15.712h16.759v15.711h15.711v-15.711h23.953v32.968c0,3.803-3.094,6.896-6.897,6.896H70.637c-3.803,0-6.897-3.094-6.897-6.897
			V318.78c0-3.803,3.094-6.897,6.897-6.897h50.542c3.803,0,6.896,3.094,6.896,6.897V336.652z M248.144,385.5
			c0,3.71-3.018,6.728-6.728,6.728h-90.903c-3.71,0-6.728-3.018-6.728-6.728v-0.169v-32.968h24.229v15.711h15.711v-15.711h24.091
			v15.711h15.712v-15.711h24.615V385.5z M248.144,336.652L248.144,336.652H223.53v-16.759h-15.712v16.759h-24.091v-16.759h-15.711
			v16.759h-24.229V318.78v-24.183c0-3.71,3.018-6.728,6.728-6.728h90.903c3.71,0,6.728,3.018,6.728,6.728V336.652z M368.215,316.15
			v20.504h-24.23v-16.759h-15.711v16.759h-24.091v-16.759H288.47v16.759h-24.615v-42.054v-0.984c0-3.167,2.577-5.744,5.744-5.744
			h92.87c3.168,0,5.744,2.577,5.744,5.744v22.534H368.215z M368.216,386.484c-0.001,3.167-2.578,5.744-5.745,5.744h-92.87
			c-3.167,0-5.744-2.577-5.744-5.744V385.5v-33.137h24.615v15.711h15.711v-15.711h24.091v15.711h15.711v-15.711h24.23V386.484z
			 M443.996,392.228h-55.804c-2.352,0-4.265-1.914-4.265-4.265v-1.479v-34.12h23.952v15.711h15.711v-15.711h16.759v-15.712H423.59
			v-16.759h-15.711v16.759h-23.953v-20.503c0-2.353,1.914-4.265,4.265-4.265h55.804c2.351,0,4.265,1.914,4.265,4.265v71.814h0.001
			C448.262,390.315,446.348,392.228,443.996,392.228z M496.289,368.194L496.289,368.194c-0.001,13.253-10.783,24.034-24.035,24.034
			h-8.75c0.301-1.376,0.469-2.801,0.469-4.265v-44.047l32.316,0.056V368.194z M496.29,328.259h-0.001l-32.316-0.056v-12.055
			c0-11.016-8.962-19.977-19.977-19.977h-55.804c-1.465,0-2.89,0.169-4.265,0.469v-3.028c0-11.831-9.625-21.456-21.456-21.456
			h-92.87c-5.303,0-10.155,1.945-13.903,5.145c-3.883-3.211-8.86-5.145-14.281-5.145h-90.903c-12.373,0-22.439,10.066-22.439,22.439
			v2.659c-2.177-0.699-4.491-1.085-6.896-1.085H70.637c-12.467,0-22.608,10.142-22.608,22.609v9.424l-32.318,0.056V183.741
			l32.316,0.056v11.306c0,11.429,9.298,20.727,20.727,20.727h54.304c1.732,0,3.406-0.237,5.016-0.639v4.415
			c0,11.159,9.079,20.238,20.239,20.238h95.305c4.666,0,8.956-1.603,12.383-4.265c3.427,2.663,7.716,4.265,12.383,4.265h95.304
			c11.159,0,20.238-9.079,20.238-20.238v-4.93c2.255,0.746,4.662,1.155,7.163,1.155h50.008c12.614,0,22.876-10.262,22.876-22.875
			v-9.157l32.316-0.056V328.259z" fill="#377daa" class="color000 svgShape"></path></svg></g></svg>