<svg id="SvgjsSvg1013" width="288" height="288" xmlns="http://www.w3.org/2000/svg" version="1.1" xmlns:xlink="http://www.w3.org/1999/xlink" xmlns:svgjs="http://svgjs.com/svgjs"><defs id="SvgjsDefs1014"></defs><g id="SvgjsG1015"><svg xmlns="http://www.w3.org/2000/svg" viewBox="0 0 454.615 454.615" width="288" height="288"><path d="M210.995,55c0,5.522-4.477,10-10,10h-3.684v3.366c0,5.523-4.477,10.001-10,10.001c-5.522,0-10-4.477-10-9.999V65h-3.425
	c-5.523,0-10-4.477-10-10c0-5.522,4.477-10,10-10h3.426v-3.743c0-5.523,4.477-10.001,10-10.001c5.522,0,10,4.477,10,9.999V45h3.683
	C206.517,45,210.995,49.477,210.995,55z M115.619,101.056c0.009-0.235-0.081-0.469-0.07-0.701c-0.024-0.287-0.238-0.577-0.238-0.87
	V33.492C115.312,15.101,130.675,0,149.066,0h78.688c18.393,0,33.558,15.101,33.558,33.492v65.992c0,0.294-0.114,0.585-0.138,0.873
	c0.011,0.228-0.081,0.455-0.072,0.685c1.389,37.113-12.438,67.079-37.936,82.228c-10.718,6.368-22.736,9.552-34.753,9.552
	c-12.018,0-24.035-3.184-34.753-9.552C128.161,168.122,114.232,138.156,115.619,101.056z M135.312,89h106V33.492
	c0-7.363-6.193-13.492-13.558-13.492h-78.688c-7.363,0-13.755,6.129-13.755,13.492V89z M135.676,109
	c0.803,26,10.867,46.417,28.198,56.712c15.136,8.991,33.94,9.112,49.076,0.121C230.277,155.539,240.341,135,241.146,109H135.676z
	 M186.926,397H98.143l21.38-115.287c6.184-33.396,36.871-43.426,49.777-46.215c31.563-6.82,64.202,3.65,79.377,25.416
	c3.157,4.53,9.393,5.66,13.922,2.5c4.53-3.158,5.643-9.384,2.484-13.914c-10.163-14.579-25.639-25.384-44.755-31.255
	c-17.473-5.367-37.096-6.159-55.253-2.235c-35.029,7.569-59.409,30.817-65.218,62.185L76.288,405.429
	c-0.542,2.921,0.245,5.806,2.145,8.091S83.15,417,86.121,417h100.805c5.523,0,10-4.478,10-10
	C196.926,401.477,192.449,397,186.926,397z M378.261,333.959l-12.34,99.612c-1.513,12.239-11.059,21.044-22.755,21.044
	c-0.101,0-6.918-0.017-9.732-0.474c-3.928-0.637-8.125-2.157-11.991-5.789c-6.157-5.785-9.658-15.307-11.351-30.872l-2.299-21.154
	c-1.272-11.711-5.587-15.644-6.882-15.85c-1.295,0.206-5.609,4.139-6.882,15.85l-2.298,21.153
	c-1.692,15.567-5.193,25.088-11.35,30.873c-3.943,3.705-8.231,5.212-12.227,5.826c-2.727,0.419-5.318,0.423-7.572,0.427
	c-0.54,0-6.411-0.326-8.488-0.957c-8.556-2.603-14.975-10.228-16.194-20.08l-12.339-99.608
	c-1.466-11.842,4.058-24.994,14.074-33.508c9.073-7.71,20.192-10.395,30.511-7.374h-0.001c10.525,3.085,21.205,4.515,32.642,4.373
	c0.084-0.002,0.165-0.002,0.247,0c11.453,0.138,22.118-1.29,32.646-4.373c10.317-3.024,21.436-0.337,30.507,7.373
	C374.203,308.964,379.728,322.117,378.261,333.959z M351.235,315.691c-2.26-1.92-6.813-4.919-11.931-3.418
	c-12.251,3.588-25.276,5.34-38.499,5.181c-9.264,0.109-18.544-0.714-27.396-2.448c-3.79-0.743-12.906-3.117-13.82-3.117
	c-3.929,0-7.221,2.292-9.054,3.85c-4.867,4.137-7.792,10.686-7.152,15.859l12.353,99.707c0.019,0.146,0.475,3.695,2.93,3.695
	c0.006,0,1.811-0.135,3.714-0.362c1.906-0.228,6.159-3.083,7.45-7.86c0.737-2.727,1.462-6.466,2.017-11.577l2.298-21.27
	C276.832,369.223,290.191,361,300.815,360c0.066,0,0.129,0,0.193,0c10.624,1,23.983,9.248,26.668,33.956l2.299,21.412
	c0.456,4.189,1.024,7.455,1.621,9.997c1.405,5.994,5.48,9.113,7.141,9.301c1.966,0.222,4.051,0.335,4.386,0.335
	c0.012,0,0.023,0,0.035,0c2.453,0,2.896-3.549,2.914-3.692l12.341-99.807C359.054,326.329,356.102,319.828,351.235,315.691z" fill="#377daa" class="color000 svgShape"></path></svg></g></svg>