<svg id="SvgjsSvg1001" width="288" height="288" xmlns="http://www.w3.org/2000/svg" version="1.1" xmlns:xlink="http://www.w3.org/1999/xlink" xmlns:svgjs="http://svgjs.com/svgjs"><defs id="SvgjsDefs1002"></defs><g id="SvgjsG1008" transform="matrix(1,0,0,1,0,0)"><svg xmlns="http://www.w3.org/2000/svg" viewBox="0 0 512 512" width="288" height="288"><path d="M416.799,213.201c62.702-65.182,63.444-120.692,63.444-123.075c0-41.697-12.029-69.385-35.753-82.291
			c-43.884-23.874-112.596,13.358-131.831,24.811c-19.237-11.451-87.948-48.683-131.83-24.811
			c-23.724,12.906-35.753,40.593-35.753,82.291c0,2.383,0.742,57.893,63.444,123.075c-8.542,19.969-35.368,85.312-35.512,118.717
			c-0.216,3.896-2.112,42.021,3.583,81.889c8.378,58.643,28.656,90.668,60.271,95.184c0.439,0.061,0.878,0.093,1.316,0.093
			c2.227,0,4.396-0.8,6.1-2.278c2.039-1.768,3.211-4.335,3.211-7.033c0-0.457,0.242-46.151,9.267-91.277
			c3.892-19.464,9.628-40.789,18.939-57.289v123.551c0,20.534,16.706,37.241,37.241,37.241c20.534,0,37.241-16.706,37.241-37.241
			V351.076c20.948,40.496,27.781,114.054,27.793,148.7c0.001,2.698,1.105,5.264,3.144,7.03c1.704,1.477,3.838,2.278,6.063,2.278
			c0.438,0,0.86-0.032,1.299-0.093c31.615-4.517,51.885-36.541,60.263-95.184c5.695-39.868,3.795-77.993,3.579-81.889
			C452.172,298.513,425.341,233.17,416.799,213.201z M312.659,493.014c-6.873,0-12.875-2.328-16.101-9.31h32.201
			C325.535,490.686,319.533,493.014,312.659,493.014z M331.555,465.083h-37.241v-3.189l37.241-18.62V465.083z M331.555,422.453
			l-37.241,18.62v-25.73l37.241-18.62V422.453z M331.555,375.902l-37.241,18.62v-25.73l37.241-18.62V375.902z M331.555,329.351
			l-37.241,18.62V328.83c4.655-3.78,11.691-5.951,18.62-5.951c6.878,0,11.638,2.13,18.62,5.926V329.351z M396.167,487.079
			c-0.631-17.216-2.664-49.52-9.207-82.233c-13.349-66.744-38.348-100.587-74.301-100.587c-35.953,0-60.952,33.843-74.301,100.587
			c-6.543,32.713-8.576,65.017-9.207,82.233c-36.687-20.239-39.779-116.028-37.541-154.343c0.01-0.182,0.016-0.364,0.016-0.546
			c0-34.836,36.075-116.431,36.439-117.25c1.564-3.521,0.799-7.641-1.924-10.365c-32.042-32.042-47.315-61.487-54.484-80.546
			c-7.744-20.588-7.96-33.817-7.961-33.903c0-34.344,8.753-56.524,26.016-65.926c33.722-18.367,96.537,13.403,117.893,27.194
			c0.166,0.107,0.346,0.168,0.516,0.263c0.34,0.191,0.676,0.384,1.036,0.531c0.258,0.104,0.522,0.168,0.784,0.248
			c0.312,0.097,0.621,0.201,0.942,0.264c0.276,0.053,0.552,0.068,0.83,0.097c0.323,0.033,0.642,0.074,0.968,0.074
			c0.26-0.001,0.515-0.037,0.774-0.06c0.341-0.028,0.681-0.051,1.019-0.119c0.258-0.051,0.505-0.139,0.757-0.211
			c0.322-0.093,0.645-0.175,0.959-0.305c0.302-0.124,0.584-0.292,0.874-0.449c0.216-0.117,0.442-0.199,0.652-0.334
			c21.328-13.801,84.076-45.591,117.874-27.2c17.273,9.397,26.031,31.58,26.031,65.934c0,0.52-0.714,52.719-62.445,114.449
			c-2.723,2.724-3.488,6.844-1.924,10.365c0.364,0.819,36.438,82.414,36.438,117.25c0,0.182,0.006,0.364,0.016,0.546
			C435.946,371.051,432.855,466.84,396.167,487.079z" fill="#377daa" class="color000 svgShape"></path><path d="M433.368 81.677l-21.682-11.858-11.858-21.682c-1.633-2.986-4.764-4.842-8.168-4.842-3.403 0-6.535 1.857-8.168 4.842l-11.859 21.682-21.681 11.858c-2.986 1.633-4.843 4.764-4.843 8.168 0 3.403 1.857 6.535 4.843 8.168l21.681 11.859 11.859 21.681c1.633 2.986 4.765 4.843 8.168 4.843 3.404 0 6.535-1.857 8.168-4.843l11.858-21.681 21.682-11.859c2.986-1.633 4.842-4.765 4.842-8.168C438.211 86.441 436.354 83.31 433.368 81.677zM400.359 94.844c-1.562.855-2.847 2.139-3.7 3.701l-4.998 9.138-4.999-9.138c-.855-1.562-2.139-2.846-3.701-3.701l-9.138-4.999 9.138-4.998c1.562-.854 2.846-2.139 3.701-3.7l4.999-9.14 4.998 9.14c.854 1.562 2.139 2.847 3.7 3.7l9.14 4.998L400.359 94.844zM321.646 212.02l-21.682-11.858-11.858-21.682c-1.633-2.986-4.764-4.842-8.168-4.842-3.403 0-6.535 1.857-8.168 4.842l-11.859 21.682-21.681 11.858c-2.986 1.633-4.843 4.764-4.843 8.168 0 3.403 1.857 6.535 4.843 8.168l21.681 11.859 11.859 21.681c1.633 2.986 4.765 4.843 8.168 4.843 3.404 0 6.535-1.857 8.168-4.843l11.858-21.681 21.682-11.859c2.986-1.633 4.842-4.765 4.842-8.168C326.488 216.784 324.631 213.653 321.646 212.02zM288.636 225.187c-1.562.855-2.847 2.139-3.7 3.701l-4.998 9.138-4.999-9.138c-.855-1.562-2.139-2.846-3.701-3.701l-9.138-4.999 9.138-4.998c1.562-.854 2.846-2.139 3.701-3.7l4.999-9.14 4.998 9.14c.854 1.562 2.139 2.847 3.7 3.7l9.14 4.998L288.636 225.187zM120.016 56.941L98.334 45.083 86.476 23.401c-1.633-2.986-4.764-4.843-8.168-4.843-3.403 0-6.535 1.857-8.168 4.843L58.28 45.083 36.599 56.941c-2.986 1.633-4.843 4.765-4.843 8.168 0 3.403 1.857 6.535 4.843 8.168L58.28 85.135l11.859 21.682c1.633 2.986 4.765 4.842 8.168 4.842 3.404 0 6.535-1.857 8.168-4.842l11.858-21.682 21.682-11.858c2.986-1.633 4.843-4.764 4.843-8.168S123.002 58.574 120.016 56.941zM87.006 70.107c-1.562.854-2.847 2.139-3.7 3.7l-4.998 9.14-4.999-9.14c-.855-1.562-2.139-2.847-3.701-3.7l-9.139-4.998 9.139-4.998c1.562-.854 2.846-2.139 3.701-3.701l4.999-9.14 4.998 9.14c.854 1.562 2.139 2.847 3.7 3.701l9.139 4.998L87.006 70.107z" fill="#377daa" class="color000 svgShape"></path></svg></g></svg>